<svg id="图层_1" data-name="图层 1" xmlns="http://www.w3.org/2000/svg" viewBox="0 0 1000 1000"><title>MaterialTools</title><path d="M747.1489,90H252.8511C163.283,90,90,163.283,90,252.8511V747.1489C90,836.717,163.283,910,252.8511,910H910V252.8511C910,163.283,836.717,90,747.1489,90Z" style="fill:#1f9dff"/><path d="M372.7273,300H663.6364A36.47,36.47,0,0,1,700,336.3636V663.6364l-72.7273-72.7273H372.7273a36.4706,36.4706,0,0,1-36.3637-36.3636V336.3636A36.3536,36.3536,0,0,1,372.7273,300Z" style="fill:#b3b3b3"/><path d="M360.6061,312.1212H651.5152a36.47,36.47,0,0,1,36.3636,36.3636V675.7576L615.1515,603.03H360.6061a36.4706,36.4706,0,0,1-36.3637-36.3636V348.4848A36.3536,36.3536,0,0,1,360.6061,312.1212Z" style="fill:#fff"/><path d="M348.4849,324.2424h290.909a36.4707,36.4707,0,0,1,36.3637,36.3637V687.8788L603.03,615.1515H348.4849a36.4706,36.4706,0,0,1-36.3637-36.3636V360.6061A36.3536,36.3536,0,0,1,348.4849,324.2424Z" style="fill:#b3b3b3"/><path d="M336.3637,336.3636h290.909a36.4707,36.4707,0,0,1,36.3637,36.3637V700l-72.7273-72.7273H336.3637A36.4705,36.4705,0,0,1,300,590.9091V372.7273A36.3536,36.3536,0,0,1,336.3637,336.3636Z" style="fill:#fff"/><rect x="342.4242" y="372.7273" width="278.7879" height="214.5455" rx="29.7553" transform="translate(963.6364 960) rotate(180)" style="fill:#1f9dff"/><rect width="1000" height="1000" style="fill:none"/></svg>