<svg id="图层_1" data-name="图层 1" xmlns="http://www.w3.org/2000/svg" viewBox="0 0 1000 1000"><title>SimpleIcons</title><rect x="120" y="120" width="760" height="760"/><path d="M500,196a152,152,0,0,0,0,304,152.0637,152.0637,0,0,1,131.12,228.9905h42.5524A189.81,189.81,0,0,0,689.95,652.2483C690.0256,547.2669,604.9309,462.1267,500,462A114,114,0,1,1,614,348h38A152.0554,152.0554,0,0,0,500,196Zm0,76a76.0258,76.0258,0,1,0,74.0214,77.9785A75.9952,75.9952,0,0,0,500,272Zm0,38a38.0139,38.0139,0,0,1,38,38v.0507A38,38,0,1,1,500,310ZM386,576v38h38V766H310v38H690V766H576V614h38V576Zm76,38h76V766H462ZM310,651.2577V652a187.9218,187.9218,0,0,0,16.3273,76.988h42.6512A150.478,150.478,0,0,1,348,652v-.7423Z" style="fill:#fff"/><rect width="1000" height="1000" style="fill:none"/></svg>