<svg id="图层_1" data-name="图层 1" xmlns="http://www.w3.org/2000/svg" viewBox="0 0 1000 1000"><title>Woodo</title><rect x="125" y="125" width="750" height="750" style="fill:#0d7bf7"/><rect width="1000" height="1000" style="fill:none"/><path d="M218.75,365.2c4.89-5.1781,12.0183-12.512,20.9794-20.98,13.5-12.7567,20.37-19.1719,26.2243-20.9794,22.223-6.8613,45.9332,15.8,47.2036,17.0458,1.5318,1.5018,24.4425,24.7057,18.357,55.071-6.2959,31.4154-38.9535,47.1689-62.9382,49.826-24.1371,2.674-42.8843-7.54-49.8261-11.8009Z" style="fill:#fff"/><rect x="318.3193" y="307.1921" width="79.1766" height="385.6159" rx="23.6953" transform="translate(309.2749 -112.9704) rotate(31.0594)" style="fill:#fff"/><path d="M766.837,430.76C748.819,393.4222,719.5546,373.9,694.72,357.3324c-40.1749-26.8012-71.5463-30.5954-81.2952-31.4691-10.7838-.9665-37.8023-3.4672-48.6914,4.6674a30.9237,30.9237,0,0,0-10.4379,10.4942l-166.89,277.101a31.07,31.07,0,0,0,10.5856,42.6448l14.5948,8.79a31.07,31.07,0,0,0,42.6448-10.5856L615.6452,392.6267c.1346.0338.2675.0755.4023.1084,3.0155.7357,2.5541.3983,6.5561,1.3112,31.3025,7.1405,51.737,26.2533,57.6934,31.4691,7.7435,6.7808,37.4369,32.7825,39.3363,74.7392,1.6881,37.2862-19.6557,63.2872-24.913,69.4943-5.8906,6.9547-25.5558,28.2564-56.3822,35.4027-25.2113,5.8446-41.1758-1.6533-55.0709,11.8009-1.4846,1.4376-10.7035,10.6328-10.49,23.6019.24,14.5445,12.1871,24.3827,14.4233,26.2242,25.903,21.33,77.3431,2.63,103.5859-11.8009,37.0663-20.3821,56.86-50.3884,64.2494-62.9382C759.0261,585.2636,803.5465,506.8321,766.837,430.76Z" style="fill:#fff"/></svg>